<?xml version="1.0" ?><!DOCTYPE svg  PUBLIC '-//W3C//DTD SVG 1.1//EN'  'http://www.w3.org/Graphics/SVG/1.1/DTD/svg11.dtd'><svg height="512px" style="shape-rendering:geometricPrecision; text-rendering:geometricPrecision; image-rendering:optimizeQuality; fill-rule:evenodd; clip-rule:evenodd" version="1.1" viewBox="0 0 512 512" width="512px" xml:space="preserve" xmlns="http://www.w3.org/2000/svg" xmlns:xlink="http://www.w3.org/1999/xlink" xmlns:xodm="http://www.corel.com/coreldraw/odm/2003"><defs><style type="text/css">
   <![CDATA[
    .fil0 {fill:black}
   ]]>
  </style></defs><g id="Layer_x0020_1"><path class="fil0" d="M256 0c141.39,0 256,114.61 256,256 0,141.39 -114.61,256 -256,256 -141.39,0 -256,-114.61 -256,-256 0,-141.39 114.61,-256 256,-256zm-114.04 374.81l49.03 0 0 -158.41 -49.03 0 0 158.41zm24.28 -179.15c16.02,0 29,-13.1 29,-29.24 0,-16.14 -12.98,-29.23 -29,-29.23 -16.02,0 -28.99,13.09 -28.99,29.23 0,16.14 12.97,29.24 28.99,29.24zm103.13 96c0,-22.27 10.26,-35.55 29.89,-35.55 18.02,0 26.69,12.74 26.69,35.55 0,22.81 0,83.15 0,83.15l48.8 0c0,0 0,-57.87 0,-100.3 0,-42.43 -24.05,-62.95 -57.64,-62.95 -33.6,0 -47.74,26.18 -47.74,26.18l0 -21.34 -47.03 0 0 158.41 47.03 0c0,0 0,-58.75 0,-83.15z"/></g></svg>